<?xml version="1.0" encoding="UTF-8" standalone="no"?>
<!DOCTYPE svg PUBLIC "-//W3C//DTD SVG 1.1//EN"
 "http://www.w3.org/Graphics/SVG/1.1/DTD/svg11.dtd">
<!-- Generated by graphviz version 5.0.0 (20220707.1540)
 -->
<!-- Title: dependencies Pages: 1 -->
<svg width="325pt" height="247pt"
 viewBox="0.00 0.00 325.00 246.80" xmlns="http://www.w3.org/2000/svg" xmlns:xlink="http://www.w3.org/1999/xlink">
<g id="graph0" class="graph" transform="scale(1 1) rotate(0) translate(4 242.8)">
<title>dependencies</title>
<polygon fill="white" stroke="transparent" points="-4,4 -4,-242.8 321,-242.8 321,4 -4,4"/>
<text text-anchor="middle" x="158.5" y="-8.2" font-family="sans-serif" font-size="14.00">dependencies</text>
<g id="clust1" class="cluster">
<title>cluster_NgxSdkDappModule</title>
<polygon fill="none" stroke="black" stroke-dasharray="1,5" points="8,-32.8 8,-230.8 309,-230.8 309,-32.8 8,-32.8"/>
</g>
<g id="clust2" class="cluster">
<title>cluster_NgxSdkDappModule_declarations</title>
<polygon fill="none" stroke="black" points="16,-40.8 16,-92.8 295,-92.8 295,-40.8 16,-40.8"/>
</g>
<g id="clust6" class="cluster">
<title>cluster_NgxSdkDappModule_exports</title>
<polygon fill="none" stroke="black" points="16,-170.8 16,-222.8 301,-222.8 301,-170.8 16,-170.8"/>
</g>
<!-- FormatAmountPipe -->
<g id="node1" class="node">
<title>FormatAmountPipe</title>
<polygon fill="#ffffb3" stroke="black" points="286.72,-84.8 159.28,-84.8 159.28,-48.8 286.72,-48.8 286.72,-84.8"/>
<text text-anchor="middle" x="223" y="-62.6" font-family="Times,serif" font-size="14.00">FormatAmountPipe</text>
</g>
<!-- NgxSdkDappModule -->
<g id="node3" class="node">
<title>NgxSdkDappModule</title>
<polygon fill="#8dd3c7" stroke="black" points="220.77,-149.8 217.77,-153.8 196.77,-153.8 193.77,-149.8 85.23,-149.8 85.23,-113.8 220.77,-113.8 220.77,-149.8"/>
<text text-anchor="middle" x="153" y="-127.6" font-family="Times,serif" font-size="14.00">NgxSdkDappModule</text>
</g>
<!-- FormatAmountPipe&#45;&gt;NgxSdkDappModule -->
<g id="edge1" class="edge">
<title>FormatAmountPipe&#45;&gt;NgxSdkDappModule</title>
<path fill="none" stroke="black" d="M190.14,-84.91C190.14,-84.91 190.14,-103.79 190.14,-103.79"/>
<polygon fill="black" stroke="black" points="186.64,-103.79 190.14,-113.79 193.64,-103.79 186.64,-103.79"/>
</g>
<!-- ParseAmountPipe -->
<g id="node2" class="node">
<title>ParseAmountPipe</title>
<polygon fill="#ffffb3" stroke="black" points="141.6,-84.8 24.4,-84.8 24.4,-48.8 141.6,-48.8 141.6,-84.8"/>
<text text-anchor="middle" x="83" y="-62.6" font-family="Times,serif" font-size="14.00">ParseAmountPipe</text>
</g>
<!-- ParseAmountPipe&#45;&gt;NgxSdkDappModule -->
<g id="edge2" class="edge">
<title>ParseAmountPipe&#45;&gt;NgxSdkDappModule</title>
<path fill="none" stroke="black" d="M113.33,-84.91C113.33,-84.91 113.33,-103.79 113.33,-103.79"/>
<polygon fill="black" stroke="black" points="109.83,-103.79 113.33,-113.79 116.83,-103.79 109.83,-103.79"/>
</g>
<!-- FormatAmountPipe  -->
<g id="node4" class="node">
<title>FormatAmountPipe </title>
<polygon fill="#fb8072" stroke="black" points="293.22,-214.8 162.78,-214.8 162.78,-178.8 293.22,-178.8 293.22,-214.8"/>
<text text-anchor="middle" x="228" y="-192.6" font-family="Times,serif" font-size="14.00">FormatAmountPipe </text>
</g>
<!-- NgxSdkDappModule&#45;&gt;FormatAmountPipe  -->
<g id="edge3" class="edge">
<title>NgxSdkDappModule&#45;&gt;FormatAmountPipe </title>
<path fill="none" stroke="black" stroke-dasharray="5,2" d="M191.76,-149.91C191.76,-149.91 191.76,-168.79 191.76,-168.79"/>
<polygon fill="black" stroke="black" points="188.26,-168.79 191.76,-178.79 195.26,-168.79 188.26,-168.79"/>
</g>
<!-- ParseAmountPipe  -->
<g id="node5" class="node">
<title>ParseAmountPipe </title>
<polygon fill="#fb8072" stroke="black" points="144.1,-214.8 23.9,-214.8 23.9,-178.8 144.1,-178.8 144.1,-214.8"/>
<text text-anchor="middle" x="84" y="-192.6" font-family="Times,serif" font-size="14.00">ParseAmountPipe </text>
</g>
<!-- NgxSdkDappModule&#45;&gt;ParseAmountPipe  -->
<g id="edge4" class="edge">
<title>NgxSdkDappModule&#45;&gt;ParseAmountPipe </title>
<path fill="none" stroke="black" stroke-dasharray="5,2" d="M114.71,-149.91C114.71,-149.91 114.71,-168.79 114.71,-168.79"/>
<polygon fill="black" stroke="black" points="111.21,-168.79 114.71,-178.79 118.21,-168.79 111.21,-168.79"/>
</g>
</g>
</svg>
